<svg xmlns="http://www.w3.org/2000/svg" viewBox="0 0 24 24" id="Content-Files-Write-Note--Streamline-Pixel" height="24" width="24">
  <desc>
    Content Files Write Note Streamline Icon: https://streamlinehq.com
  </desc>
  <title>content-files-write-note</title>
  <g>
    <path d="M22.856250000000003 20.571749999999998h1.1400000000000001v1.1400000000000001h-1.1400000000000001Z" fill="#000000" stroke-width="0.75"></path>
    <path d="M22.856250000000003 1.1392499999999999h1.1400000000000001v16.005h-1.1400000000000001Z" fill="#000000" stroke-width="0.75"></path>
    <path d="M21.71625 21.711750000000002h1.1400000000000001v1.1475h-1.1400000000000001Z" fill="#000000" stroke-width="0.75"></path>
    <path d="M21.71625 19.43175h1.1400000000000001v1.1400000000000001h-1.1400000000000001Z" fill="#000000" stroke-width="0.75"></path>
    <path d="M1.1437499999999998 -0.00075h21.7125v1.1400000000000001H1.1437499999999998Z" fill="#000000" stroke-width="0.75"></path>
    <path d="M20.56875 22.85925h1.1475v1.1400000000000001h-1.1475Z" fill="#000000" stroke-width="0.75"></path>
    <path d="M20.56875 18.28425h1.1475v1.1475h-1.1475Z" fill="#000000" stroke-width="0.75"></path>
    <path d="M20.56875 14.856750000000002h1.1475v1.1400000000000001h-1.1475Z" fill="#000000" stroke-width="0.75"></path>
    <path d="M17.14125 11.42925h4.574999999999999v1.1400000000000001h-4.574999999999999Z" fill="#000000" stroke-width="0.75"></path>
    <path d="M19.42875 21.711750000000002h1.1400000000000001v1.1475h-1.1400000000000001Z" fill="#000000" stroke-width="0.75"></path>
    <path d="M19.42875 17.14425h1.1400000000000001v1.1400000000000001h-1.1400000000000001Z" fill="#000000" stroke-width="0.75"></path>
    <path d="M18.28875 20.571749999999998h1.1400000000000001v1.1400000000000001h-1.1400000000000001Z" fill="#000000" stroke-width="0.75"></path>
    <path d="M18.28875 15.99675h1.1400000000000001v1.1475h-1.1400000000000001Z" fill="#000000" stroke-width="0.75"></path>
    <path d="M17.14125 19.43175h1.1475v1.1400000000000001h-1.1475Z" fill="#000000" stroke-width="0.75"></path>
    <path d="M17.14125 14.856750000000002h1.1475v1.1400000000000001h-1.1475Z" fill="#000000" stroke-width="0.75"></path>
    <path d="M16.00125 18.28425h1.1400000000000001v1.1475h-1.1400000000000001Z" fill="#000000" stroke-width="0.75"></path>
    <path d="M16.00125 13.716750000000001h1.1400000000000001v1.1400000000000001h-1.1400000000000001Z" fill="#000000" stroke-width="0.75"></path>
    <path d="M14.85375 17.14425h1.1475v1.1400000000000001h-1.1475Z" fill="#000000" stroke-width="0.75"></path>
    <path d="M14.85375 12.56925h1.1475v1.1475h-1.1475Z" fill="#000000" stroke-width="0.75"></path>
    <path d="M13.713750000000001 15.99675h1.1400000000000001v1.1475h-1.1400000000000001Z" fill="#000000" stroke-width="0.75"></path>
    <path d="M12.57375 14.856750000000002h1.1400000000000001v1.1400000000000001h-1.1400000000000001Z" fill="#000000" stroke-width="0.75"></path>
    <path d="M11.42625 3.42675h10.290000000000001v1.1475h-10.290000000000001Z" fill="#000000" stroke-width="0.75"></path>
    <path d="m14.85375 12.56925 0 -1.1400000000000001 -3.4275 0 0 3.4275 1.1475 0 0 -2.2874999999999996 2.2800000000000002 0z" fill="#000000" stroke-width="0.75"></path>
    <path d="M11.42625 6.8542499999999995h10.290000000000001v1.1475h-10.290000000000001Z" fill="#000000" stroke-width="0.75"></path>
    <path d="M10.286249999999999 2.28675H2.28375v8.0025h8.0025ZM9.149999999999999 5.71425h-1.1475V4.574999999999999H6.85875v3.4275h1.1400000000000001v1.1400000000000001H4.574999999999999v-1.1400000000000001h1.1400000000000001V4.574999999999999H4.574999999999999v1.1400000000000001H3.4312500000000004V3.42675H9.149999999999999Z" fill="#000000" stroke-width="0.75"></path>
    <path d="M2.28375 11.42925h6.862500000000001v1.1400000000000001h-6.862500000000001Z" fill="#000000" stroke-width="0.75"></path>
    <path d="m9.14625 21.711750000000002 0 -3.4275 3.4275 0 0 -1.1400000000000001 -4.574999999999999 0 0 3.4275 -1.1400000000000001 0 0 1.1400000000000001 2.2874999999999996 0z" fill="#000000" stroke-width="0.75"></path>
    <path d="M2.28375 14.856750000000002h6.862500000000001v1.1400000000000001h-6.862500000000001Z" fill="#000000" stroke-width="0.75"></path>
    <path d="M5.71125 19.43175h1.1475v1.1400000000000001h-1.1475Z" fill="#000000" stroke-width="0.75"></path>
    <path d="M4.57125 18.28425h1.1400000000000001v1.1475h-1.1400000000000001Z" fill="#000000" stroke-width="0.75"></path>
    <path d="M1.1437499999999998 17.14425h3.4275v1.1400000000000001h-3.4275Z" fill="#000000" stroke-width="0.75"></path>
    <path d="M-0.00375 1.1392499999999999h1.1475v16.005h-1.1475Z" fill="#000000" stroke-width="0.75"></path>
  </g>
</svg>